<svg version="1" xmlns="http://www.w3.org/2000/svg" width="682.667" height="682.667" viewBox="0 0 512.000000 512.000000"><path d="M365 140.1c-28.3 2.4-49.4 20.1-55.6 46.8-2.3 9.6-1.4 26.4 1.8 35.1 7.3 19.8 22.8 32.6 54.7 45.1 28.8 11.3 38.4 17.6 43.2 28.2 2.1 4.5 2.4 6.7 2.4 17.2 0 13.9-1.4 18.2-8.4 25.8-9 9.7-26.4 12.9-44.1 8-16-4.4-26.2-17.2-27.9-34.8l-.6-7-14.4-.3-14.4-.3.6 7.6c2.2 25.9 20 48.2 45.4 57 20 7 46.4 5.4 63.8-3.8 8.5-4.5 19.3-15.6 23.3-23.9 6.1-12.5 7.8-29.1 4.6-44.6-5-24.3-20.6-38.7-56.8-52.4-24.4-9.2-37.3-17.6-42.9-28.1-1.9-3.7-2.2-5.7-2.2-15.7 0-10.3.3-12.1 2.6-17.1 5.2-11.1 15.1-17.5 29.1-18.6 7.7-.7 17.5 1 23.1 3.8 11.7 6 19.7 20 19.7 34.6v5.3H441.3l-.7-7c-4-40-34.2-64.4-75.6-60.9zM71 256.5V370h29v-43.8c0-24-.7-63.3-1.5-87.2-.7-23.9-1.2-43.6-1.1-43.8.3-.3 27.5 79.9 47.7 140.6l11.4 34.3 11-.3 11-.3 29.4-87.8c16.1-48.3 29.5-87.6 29.7-87.4.2.2-.3 21.7-1.1 47.8-.8 26.1-1.5 65.5-1.5 87.6V370h29V143l-18.7.2-18.6.3-29.3 91.3c-16 50.2-29.4 91.6-29.7 91.9-.3.3-2.8-6.6-5.6-15.3-2.8-8.8-16-50.1-29.4-91.9l-24.4-76-18.6-.3L71 143v113.5z"/></svg>