<svg version="1" xmlns="http://www.w3.org/2000/svg" width="682.667" height="682.667" viewBox="0 0 512.000000 512.000000"><path d="M232 1c-47.2 4.9-92.3 22.3-128.5 49.5C48.4 92 13 151.3 2.4 220c-2.7 17.4-2.5 56.8.4 74.7 4.3 26.5 10.5 46.4 21.9 70.6 15.5 32.8 33.1 56.6 59.6 80.4 20.7 18.6 36 28.8 62 41.3 54 25.9 113.9 31.8 172.7 17 34.4-8.6 69.7-26.3 97.5-48.7 28.8-23.2 51.7-51.8 68.4-85.4 9.1-18.1 14.9-34 19.6-52.9 5.6-23.1 6.9-34.6 6.9-61 0-27-1.3-38.4-7.4-62.5-8.3-33.2-23.2-64.2-44.2-92.3-8.9-11.9-30.2-33.9-42.3-43.7-20.3-16.5-49.2-32.9-74-42.1-12.8-4.7-36.8-10.7-51.5-12.9-13.3-2-47.3-2.8-60-1.5zm154.5 149c9.2 2.9 20.1 9.7 26.2 16.4 9 9.8 16.3 27.6 16.3 39.8v4.8H402.3l-.5-7.4c-.4-5.3-1.3-9-3.5-13.7-4.1-8.9-7.4-12.3-15.1-16.1-6.3-3.1-7.2-3.3-17.7-3.2-9 0-11.8.4-15.6 2.1-12.3 5.6-18 15.7-18 31.8 0 10 2.6 15.9 10 22.8 7 6.4 14.5 10.5 31 16.7 42 15.9 56.1 31.8 56.3 64 .1 17.8-4.5 29.9-15.2 40.8-16.3 16.4-46.5 21.7-72.3 12.7-24.2-8.4-40.2-28.5-42.4-53.3l-.6-7.2H326v4.2c0 5.4 2 13 4.9 18.6 7.4 14.5 27 22.2 46.3 18.1 16.7-3.6 24.9-14.5 24.9-32.9 0-21.4-7.9-28.9-46-43.6-28.3-10.9-44.4-25.5-49.6-45-2.2-7.9-2.2-23.1 0-31.4 5.1-19.9 21.9-35.9 42.5-40.5 9.5-2.1 28.4-1.4 37.5 1.5zm-241.6 86.2C160 283.4 172.7 322 173 322c.3 0 13-38.7 28.1-86l27.4-86H263v213h-27v-36.8c0-20.2.7-57.1 1.5-82.1.8-25 1.4-45.6 1.2-45.7-.1-.2-12.7 36.7-27.9 81.9l-27.6 82.2-10.3.3-10.4.2-27.5-81.9c-15.1-45.1-27.6-81.9-27.8-81.7-.2.2.2 14.3.7 31.2.6 17 1.1 53.7 1.1 81.6V363H83V150l17.2.2 17.3.3 27.4 85.7z"/></svg>